<svg xmlns="http://www.w3.org/2000/svg" width="220mm" height="50mm" viewBox="0 0 623.622 141.732">
  <defs>
    <style>
      .a {
        fill: #d21e26;
      }
      .b {
        fill: #7c848c;
      }
    </style>
  </defs>
  <g>
    <g>
      <path class="b" d="M145.546,44.661l-1.977,4.008a13.469,13.469,0,0,0-7.162-1.56v9.062h8.129l-2.217,3.635a23.43,23.43,0,0,0-5.912-1.151v9.492c3.313,0,5.156,0,10.648-1.873l-1.9,4.313h-13.6a20.407,20.407,0,0,0,.971-6.661v-12.7a22.475,22.475,0,0,0-.971-6.563Z"/>
      <path class="b" d="M181.345,63.5a35.087,35.087,0,0,0,4.052,7.021l-6.166.065a10.446,10.446,0,0,0-1.055-4.554l-1.53-3.5h-9.1l-1.313,2.81a11.744,11.744,0,0,0-1.312,5.245H158.6c.857-.993,1.626-1.929,3.771-6.182l9.983-19.853h.2Zm-12.338-4H175.3l-3.011-6.952Z"/>
      <path class="b" d="M211.933,49.636A7.566,7.566,0,0,0,207.02,47.6c-2.249,0-4.02,1.445-4.02,3.494,0,2.453,2.171,3.727,5.429,5.606,3.733,2.144,4.77,4.171,4.77,6.66,0,4.305-3.341,7.415-8.784,7.415a14.455,14.455,0,0,1-4.468-.694v-5.5c1.179,1.351,2.717,3.154,5.091,3.154a3.806,3.806,0,0,0,3.877-3.635,4.261,4.261,0,0,0-2.178-3.421c-5.537-3.463-7.755-4.837-7.755-8.783a7.6,7.6,0,0,1,7.689-7.5,13.1,13.1,0,0,1,5.262,1.229Z"/>
      <path class="b" d="M247.51,44.7l-1.8,3.973a14.025,14.025,0,0,0-6.779-1.383V64.405a23.638,23.638,0,0,0,.723,6.182h-5.284a26.917,26.917,0,0,0,.729-6.6v-16.7c-1.734-.044-3.25-.044-8.258,1.758L228.21,44.7Z"/>
      <path class="b" d="M260.715,57.933a24.172,24.172,0,0,0,4.294.455,19.882,19.882,0,0,0,4.125-.455V62.12a26.624,26.624,0,0,0-4.411-.445,19.628,19.628,0,0,0-4.008.445Z"/>
      <path class="b" d="M287.794,44.661a14.1,14.1,0,0,0-.131,1.42,28.727,28.727,0,0,0,1.031,5.214l3.11,11.9,6.3-18.431h.237L304.5,63.192l3.338-12.449a22.234,22.234,0,0,0,.879-4.733l-.067-1.249,5.047.072a21.774,21.774,0,0,0-1.441,4.178l-5.934,21.832h-3.062l-5.084-15.178L293.06,70.843h-3.115L284.82,51.4a42.88,42.88,0,0,0-2.244-6.677Z"/>
      <path class="b" d="M342.315,44.661l-1.978,4.008a13.465,13.465,0,0,0-7.146-1.56v9.062H341.3L339.1,59.806a23.53,23.53,0,0,0-5.91-1.151v9.492c3.312,0,5.141,0,10.64-1.873l-1.9,4.313H328.348a21.385,21.385,0,0,0,.963-6.661v-12.7a23.353,23.353,0,0,0-.963-6.563Z"/>
      <path class="b" d="M370.8,49.636a7.509,7.509,0,0,0-4.913-2.037c-2.235,0-4.012,1.445-4.012,3.494,0,2.453,2.179,3.727,5.428,5.606,3.75,2.144,4.78,4.171,4.78,6.66,0,4.305-3.347,7.415-8.786,7.415a14.356,14.356,0,0,1-4.463-.694v-5.5c1.186,1.351,2.713,3.154,5.09,3.154a3.792,3.792,0,0,0,3.857-3.635,4.253,4.253,0,0,0-2.16-3.421c-5.549-3.463-7.754-4.837-7.754-8.783a7.6,7.6,0,0,1,7.682-7.5,12.891,12.891,0,0,1,5.251,1.229Z"/>
      <path class="b" d="M406.809,44.7l-1.8,3.973a14,14,0,0,0-6.779-1.383V64.405a22.865,22.865,0,0,0,.73,6.182h-5.293a27.083,27.083,0,0,0,.717-6.6v-16.7c-1.72-.044-3.242-.044-8.252,1.758l1.376-4.348Z"/>
      <path class="b" d="M451.363,49.563a13.9,13.9,0,0,0-6.742-1.865c-5.787,0-9.84,4.289-9.84,10.063,0,5.289,3.469,9.859,9.571,9.859a11.594,11.594,0,0,0,7.627-2.806l-.194,4.021a16.436,16.436,0,0,1-8.1,1.971c-10.063,0-13.006-7.959-13.006-12.636,0-6.907,5.8-13.749,15.111-13.749a15.021,15.021,0,0,1,5.572,1Z"/>
      <path class="b" d="M480.2,44.661l-1.963,4.008a13.563,13.563,0,0,0-7.174-1.56v9.062h8.139l-2.225,3.635a23.474,23.474,0,0,0-5.914-1.151v9.492c3.334,0,5.153,0,10.651-1.873l-1.9,4.313H466.232a20.8,20.8,0,0,0,.944-6.661v-12.7a22.27,22.27,0,0,0-.944-6.563Z"/>
      <path class="b" d="M500.549,44.661c.472,1.172.722,1.792,2.744,4.381l11.736,14.884v-11.8c0-4.778-.322-5.975-.724-7.466H519.3a19.222,19.222,0,0,0-.674,5.527V64.116c0,4.031.481,5.406.867,6.471h-4.8a12.366,12.366,0,0,0-2.218-3.727l-11.034-14.1V62.986a23.98,23.98,0,0,0,1.036,7.6h-5.494a27.788,27.788,0,0,0,.863-6.84V48.154a17.663,17.663,0,0,0-3.5-3.493Z"/>
      <path class="b" d="M554.865,44.7l-1.812,3.973a13.947,13.947,0,0,0-6.774-1.383V64.405a23.355,23.355,0,0,0,.735,6.182h-5.307a25.207,25.207,0,0,0,.744-6.6v-16.7c-1.717-.044-3.248-.044-8.267,1.758L535.57,44.7Z"/>
      <path class="b" d="M583.053,44.661l-1.977,4.008a13.462,13.462,0,0,0-7.162-1.56v9.062h8.141l-2.221,3.635a23.456,23.456,0,0,0-5.92-1.151v9.492c3.324,0,5.16,0,10.662-1.873l-1.908,4.313H569.076a20.459,20.459,0,0,0,.967-6.661v-12.7a22.325,22.325,0,0,0-.967-6.563Z"/>
      <path class="b" d="M599.941,50.091a16.073,16.073,0,0,0-.7-5.365l5.043-.065c6.67-.109,9.824,3.9,9.824,7.392,0,4.223-3.728,6.3-4.916,6.921a83.906,83.906,0,0,0,8.581,11.613h-3.559c-3.5-3-5.1-4.87-10.453-12v6.394a17.816,17.816,0,0,0,.73,5.6h-5.25a30.1,30.1,0,0,0,.7-6.7Zm3.817,8.126c2.465-.7,6.4-1.794,6.4-5.775,0-1.94-1.2-5.049-6.4-5.576Z"/>
    </g>
    <polygon class="a" points="115.653 84.319 101.242 84.329 101.204 84.329 101.198 84.349 85.229 103.544 69.163 84.401 86.227 84.401 86.227 73.956 65.933 73.956 65.933 61.363 82.758 61.363 82.758 50.913 65.933 50.913 65.933 38.099 86.227 38.099 86.227 27.648 35.451 27.648 35.451 38.099 55.481 38.099 55.481 50.913 38.538 50.913 38.538 61.363 55.481 61.363 55.481 73.956 35.451 73.956 35.451 84.401 52.488 84.401 36.425 103.544 20.438 84.349 20.421 84.329 20.403 84.329 5.986 84.319 5.853 84.311 5.95 84.421 30.809 114.05 30.841 114.017 30.809 114.084 42.616 114.084 42.63 114.064 60.812 92.278 79.015 114.064 79.032 114.084 90.837 114.084 90.803 114.017 90.837 114.05 115.687 84.421 115.783 84.311 115.653 84.319"/>
  </g>
</svg>
