<?xml version="1.0" encoding="UTF-8"?>
<svg version="1.1" xmlns="http://www.w3.org/2000/svg" width="698" height="698">
<path d="M0 0 C1.11474701 0.02220612 2.22949402 0.04441223 3.37802124 0.06729126 C4.63917755 0.08746307 5.90033386 0.10763489 7.19970703 0.12841797 C8.58125303 0.16072347 9.96279388 0.19325028 11.34432983 0.22598267 C12.7539308 0.25214607 14.16354866 0.27741338 15.57318115 0.30181885 C19.28550575 0.36850673 22.99747562 0.447391 26.70950317 0.52877808 C30.49649426 0.60966251 34.2836936 0.67906473 38.07089233 0.74942017 C45.50343634 0.88919543 52.93564308 1.04185007 60.36776733 1.20254517 C60.6043103 2.29454224 60.84085327 3.38653931 61.08456421 4.5116272 C63.46752457 15.42507863 66.07581737 26.26208404 68.86776733 37.07754517 C69.07852905 37.89803345 69.28929077 38.71852173 69.50643921 39.56387329 C73.23827977 54.08150824 77.16191906 68.54378061 81.13607788 82.99667358 C84.89133321 96.6597092 88.49268205 110.35315763 91.97225952 124.08877563 C95.52671617 138.10340864 99.2994534 152.05173917 103.13525391 165.99172974 C106.96621432 179.92421767 110.62852304 193.89083768 114.17440796 207.89837646 C116.91090513 218.69545952 119.79605189 229.43371266 122.86776733 240.14004517 C126.22720216 251.85216105 129.26883356 263.62142231 132.18026733 275.45254517 C135.67151076 289.63467348 139.36644553 303.74583162 143.24276733 317.82754517 C147.31307155 332.64923281 151.37056167 347.4740092 155.30532837 362.33236694 C155.84144598 364.35008792 156.38152541 366.36676092 156.92581177 368.3822937 C157.6827761 371.18815132 158.42539054 373.99744546 159.16464233 376.80801392 C159.50119339 378.03796837 159.50119339 378.03796837 159.84454346 379.29277039 C160.04653351 380.07276901 160.24852356 380.85276764 160.45663452 381.65640259 C160.63361877 382.32088913 160.81060303 382.98537567 160.99295044 383.66999817 C161.55605601 387.47476619 161.36776733 391.35633306 161.36776733 395.20254517 C139.25776733 394.21254517 117.14776733 393.22254517 94.36776733 392.20254517 C92.44451583 387.07387448 90.81039206 382.47493905 89.49276733 377.24160767 C89.32741486 376.59122025 89.16206238 375.94083282 88.99169922 375.27073669 C88.63427544 373.86322942 88.27883488 372.45521729 87.92520142 371.04675293 C86.9443347 367.14181222 85.9476107 363.24090205 84.95370483 359.33926392 C84.63954117 358.10337273 84.63954117 358.10337273 84.31903076 356.84251404 C81.92348236 347.42950016 79.4591739 338.03469164 76.99276733 328.64004517 C76.53088157 326.87866585 76.06904917 325.11727255 75.60726929 323.35586548 C73.70823979 316.11389879 71.80695007 308.87252727 69.90341187 301.63174438 C68.45285002 296.11398757 67.00347339 290.59592075 65.55526733 285.07754517 C65.32217865 284.18957245 65.08908997 283.30159973 64.84893799 282.38671875 C61.9431786 271.30993596 59.09771227 260.22154154 56.35165405 249.10391235 C54.65999875 242.28621312 52.83609049 235.51197259 50.96591187 228.74136353 C46.47768442 212.41781976 42.27345392 196.01615965 38.00234985 179.63479614 C37.23962209 176.71138539 36.47495981 173.78848344 35.71003723 170.86564636 C34.92761087 167.87421466 34.14777108 164.88210932 33.36776733 161.89004517 C32.96860107 160.36601074 32.96860107 160.36601074 32.56137085 158.81118774 C30.6971452 151.63780153 29.00426083 144.43111681 27.36776733 137.20254517 C25.44397248 143.61826292 23.93984774 150.1160902 22.43026733 156.64004517 C22.13233276 157.92209839 21.83439819 159.20415161 21.5274353 160.52505493 C18.1773526 174.95852001 14.87641202 189.40339798 11.57284546 203.8475647 C9.32732329 213.66392489 7.07652751 223.47894566 4.80136108 233.28848267 C4.49742432 234.60010124 4.49742432 234.60010124 4.18734741 235.93821716 C3.24735257 239.99423479 2.30563912 244.04983611 1.36044312 248.10464478 C-0.38362469 255.61223615 -2.05436127 263.1291838 -3.62442017 270.67520142 C-5.38449672 279.133359 -7.29682919 287.54954278 -9.2661438 295.96115112 C-12.75876668 310.89086245 -16.11791657 325.84635767 -19.38223267 340.82754517 C-24.1092345 362.50596387 -24.1092345 362.50596387 -26.56973267 372.82754517 C-26.75696899 373.61338989 -26.94420532 374.39923462 -27.13711548 375.20889282 C-28.19407603 379.57404114 -29.38910745 383.88731405 -30.63223267 388.20254517 C-42.73200569 388.32702843 -54.76446533 388.03080483 -66.84805298 387.40298462 C-69.52588453 387.26407764 -72.20399604 387.13221509 -74.88223267 387.00137329 C-76.62964891 386.91388943 -78.37704554 386.82601276 -80.12442017 386.73770142 C-80.90284271 386.69911514 -81.68126526 386.66052887 -82.48327637 386.62077332 C-88.87825116 386.28529687 -95.25304531 385.75932075 -101.63223267 385.20254517 C-97.64714144 367.56855759 -93.37452293 350.02608765 -88.88223267 332.51504517 C-88.07397735 329.35272511 -87.26641955 326.19022784 -86.4590807 323.02767372 C-86.2929663 322.37697096 -86.1268519 321.7262682 -85.95570374 321.05584717 C-85.78773222 320.39784245 -85.6197607 319.73983772 -85.44669914 319.06189346 C-84.92962101 317.03691412 -84.41214176 315.01203764 -83.89457703 312.98718262 C-81.20362525 302.45695247 -78.53006533 291.92236653 -75.86270142 281.38613892 C-75.45904554 279.79196672 -75.05538953 278.19779456 -74.6517334 276.60362244 C-73.07445963 270.37385559 -71.49752401 264.14400336 -69.92166138 257.91387939 C-68.8247425 253.57759179 -67.72699645 249.24151442 -66.62832642 244.90567017 C-66.45286411 244.21317862 -66.27740181 243.52068707 -66.09662247 242.80721092 C-63.71360123 233.40743534 -61.28790488 224.01968797 -58.82432556 214.64071655 C-56.90548836 207.31032357 -55.06266015 199.96209916 -53.23379517 192.60879517 C-49.90752666 179.23904546 -46.46973778 165.89974488 -43.00897217 152.56427002 C-37.47680933 131.23767694 -32.01550402 109.89555936 -26.69473267 88.51504517 C-22.25027315 70.65682285 -17.75426983 52.81435956 -13.12969971 35.00189209 C-12.10519491 31.04987405 -11.09634175 27.09423846 -10.09963989 23.13514709 C-9.60925608 21.18839662 -9.11565811 19.24245668 -8.62197876 17.29653931 C-8.02182725 14.9299071 -7.42676159 12.5619769 -6.83779907 10.1925354 C-6.44407104 8.64868164 -6.44407104 8.64868164 -6.04238892 7.07363892 C-5.81688354 6.17572632 -5.59137817 5.27781372 -5.35903931 4.35269165 C-4.27500023 1.14572754 -3.40292155 0.26184817 0 0 Z " fill="#FEFEFE" transform="translate(536.6322326660156,4.797454833984375)"/>
<path d="M0 0 C158.07 0 316.14 0 479 0 C477.66754405 7.3285077 476.25654679 14.55614043 474.57421875 21.80078125 C474.34475052 22.79845016 474.11528229 23.79611908 473.87886047 24.82402039 C473.15076475 27.98739581 472.41925513 31.14996929 471.6875 34.3125 C470.96723418 37.43592992 470.24769006 40.55952538 469.52827454 43.68315125 C469.08361481 45.61267629 468.63837009 47.54206671 468.19230652 49.4712677 C466.5801104 56.45078078 464.99002021 63.43521169 463.40339661 70.420578 C463.1718936 71.4395144 462.9403906 72.4584508 462.70187235 73.50826406 C462.13451087 76.00549332 461.56722201 78.50273906 461 81 C407.29423322 81.06629522 353.59187039 80.91023972 299.88695833 80.61291331 C289.45403362 80.55524154 279.02109597 80.50008229 268.58815735 80.44499362 C250.00285442 80.34679673 231.41756181 80.24677727 212.83227539 80.14550781 C194.84432496 80.04749732 176.85636992 79.95040987 158.8684082 79.85449219 C157.74813105 79.8485182 156.62785389 79.84254421 155.47362895 79.83638918 C149.85009392 79.80640657 144.22655881 79.77644135 138.60302365 79.74648476 C92.40200097 79.50034946 46.20099732 79.2508585 0 79 C0 52.93 0 26.86 0 0 Z " fill="#FFFFFF" transform="translate(4,0)"/>
<path d="M0 0 C61.38 0 122.76 0 186 0 C182.37 15.84 178.74 31.68 175 48 C170.48962644 67.99768162 170.48962644 67.99768162 166 88 C151.01850583 88.05927489 136.04828349 87.91892308 121.06958008 87.62768555 C117.70073827 87.56275515 114.33183207 87.50286746 110.96289062 87.44335938 C95.96535632 87.16583162 80.98532309 86.66358424 66 86 C66.00261841 86.82972321 66.00523682 87.65944641 66.00793457 88.51431274 C66.08809558 118.77534751 65.8275978 149.03250947 65.55461788 179.29210114 C65.48667912 186.83143926 65.42109632 194.37079772 65.35546875 201.91015625 C65.23913598 215.27345733 65.1194292 228.63672544 65 242 C43.55 242 22.1 242 0 242 C0 162.14 0 82.28 0 0 Z " fill="#C8C8C8" transform="translate(267,158)"/>
<path d="M0 0 C0.99 0 1.98 0 3 0 C8.29225426 19.02439471 13.5691643 38.04949705 18.4375 57.1875 C21.82561383 70.5041264 25.32129717 83.78908839 28.875 97.0625 C32.81475787 111.78043694 36.71576863 126.50747361 40.5625 141.25 C44.16085069 155.0337422 47.80291462 168.80490176 51.5 182.5625 C51.72763031 183.40970612 51.95526062 184.25691223 52.18978882 185.12979126 C54.23679303 192.74613202 56.28758252 200.36145018 58.34277344 207.97558594 C64.02195069 229.01685469 69.59743538 250.08149911 75.05688477 271.1809082 C80.16275249 290.90303209 85.411526 310.58542973 90.71191406 330.25610352 C92.18162928 335.7112332 93.64078616 341.16911722 95.09606934 346.62811279 C96.05439703 350.2029145 97.02796288 353.77340846 98.00097656 357.34423828 C98.64964163 359.76189594 99.29776905 362.17969793 99.9453125 364.59765625 C100.25169647 365.70749374 100.55808044 366.81733124 100.87374878 367.96080017 C101.15276031 369.01280106 101.43177185 370.06480194 101.71923828 371.14868164 C101.96715118 372.06363907 102.21506409 372.9785965 102.4704895 373.92127991 C103 377 103 377 103 386 C80.89 385.01 58.78 384.02 36 383 C34.07674849 377.87132931 32.44262472 373.27239389 31.125 368.0390625 C30.95964752 367.38867508 30.79429504 366.73828766 30.62393188 366.06819153 C30.2665081 364.66068425 29.91106755 363.25267213 29.55743408 361.84420776 C28.57656736 357.93926706 27.57984336 354.03835689 26.5859375 350.13671875 C26.27177383 348.90082756 26.27177383 348.90082756 25.95126343 347.63996887 C23.55571503 338.22695499 21.09140657 328.83214648 18.625 319.4375 C18.16311424 317.67612069 17.70128183 315.91472739 17.23950195 314.15332031 C15.34047246 306.91135362 13.43918273 299.66998211 11.53564453 292.42919922 C10.08508269 286.91144241 8.63570605 281.39337559 7.1875 275.875 C6.95441132 274.98702728 6.72132263 274.09905457 6.48117065 273.18417358 C3.57541127 262.10739079 0.72994494 251.01899637 -2.01611328 239.90136719 C-3.70776859 233.08366795 -5.53167685 226.30942743 -7.40185547 219.53881836 C-12.1121717 202.40754459 -16.51942038 185.19244835 -21 168 C-21.19029785 167.27016907 -21.3805957 166.54033813 -21.57666016 165.78839111 C-23.24668047 159.38344082 -24.91242522 152.97753083 -26.55859375 146.56640625 C-27.45843159 143.06531648 -28.38537463 139.57426335 -29.34765625 136.08984375 C-29.54560791 135.35459473 -29.74355957 134.6193457 -29.94750977 133.86181641 C-30.44514191 132.01598158 -30.95612552 130.17375873 -31.46875 128.33203125 C-32.46554756 122.0800583 -31.01563291 116.50151999 -29.1875 110.5 C-27.65518084 105.31454312 -26.23443485 100.12416985 -24.9375 94.875 C-24.77016357 94.19904785 -24.60282715 93.5230957 -24.43041992 92.82666016 C-23.68955294 89.82314536 -22.95560437 86.81795561 -22.22265625 83.8125 C-20.99489527 78.82181753 -19.68934827 73.87153706 -18.25 68.9375 C-15.90165065 60.82583525 -13.82092947 52.64805061 -11.71679688 44.47021484 C-9.551313 36.0737482 -7.30187964 27.70376484 -5.00195312 19.34326172 C-3.23821668 12.91770409 -1.55823118 6.47896122 0 0 Z " fill="#C8C8C8" transform="translate(595,14)"/>
<path d="M0 0 C1.29131652 0.00436926 1.29131652 0.00436926 2.60872024 0.00882679 C3.96982482 0.00754515 3.96982482 0.00754515 5.35842645 0.00623763 C8.42327684 0.00458004 11.48807344 0.01010873 14.55291885 0.01555592 C16.74023065 0.01583776 18.92754254 0.01568012 21.11485428 0.01511341 C27.07329094 0.0148253 33.03170766 0.02072417 38.99013966 0.02768737 C45.2095056 0.03391871 51.42887193 0.03452453 57.64824051 0.03571278 C68.09368363 0.03847246 78.53911989 0.04472795 88.98455948 0.05364186 C99.74530129 0.0628153 110.50604111 0.06989647 121.26678604 0.07414967 C122.26106148 0.07454375 122.26106148 0.07454375 123.2754233 0.0749458 C126.60061647 0.0762508 129.92580965 0.07751227 133.25100285 0.0787577 C160.85416943 0.08922357 188.4573278 0.10682427 216.06048721 0.12908131 C216.21405486 12.23743708 216.36223664 24.34584544 216.50345081 36.45435196 C216.56918613 42.07618985 216.63681028 47.69799206 216.70868057 53.31975514 C216.77790904 58.74021686 216.84226818 64.16071612 216.90318245 69.58127743 C216.92734691 71.65424997 216.95329674 73.72720245 216.98102134 75.80013043 C217.01941221 78.69287052 217.05158065 81.58561543 217.08221573 84.47844654 C217.10163475 85.77748165 217.10163475 85.77748165 217.12144607 87.1027599 C217.13948544 89.11155547 217.10575551 91.12071484 217.06048721 93.12908131 C215.20507092 94.9844976 212.56379203 94.2518504 210.09480131 94.25816262 C209.23003268 94.25524978 208.36526405 94.25233693 207.47429031 94.24933583 C206.56280371 94.25019025 205.65131711 94.25104468 204.7122097 94.25192499 C201.63353987 94.25358259 198.55492357 94.24805387 195.4762587 94.2426067 C193.27909481 94.24232486 191.08193083 94.24248249 188.884767 94.2430492 C182.89947173 94.24333731 176.9141963 94.23743844 170.92890567 94.23047525 C164.68151251 94.22424392 158.43411895 94.22363809 152.18672317 94.22244984 C141.69420179 94.21969015 131.20168658 94.21343465 120.70916885 94.20452076 C109.89992443 94.19534732 99.090682 94.18826616 88.28143448 94.18401295 C87.28267854 94.18361886 87.28267854 94.18361886 86.26374572 94.18321682 C82.92356847 94.18191182 79.58339122 94.18065035 76.24321395 94.17940491 C48.51563327 94.16893904 20.78806075 94.15133833 -6.93951279 94.12908131 C-6.96263457 82.02066187 -6.98042703 69.91224764 -6.99132496 57.80381066 C-6.99655415 52.18200169 -7.00365245 46.56020778 -7.01495224 40.93840748 C-7.02577984 35.51789854 -7.03178935 30.09740411 -7.03439003 24.67688519 C-7.03624451 22.60393186 -7.03986556 20.53097937 -7.04524285 18.45803219 C-7.05245159 15.56524238 -7.0535038 12.67251335 -7.05303818 9.77971607 C-7.05663346 8.91369267 -7.06022873 8.04766926 -7.06393296 7.15540272 C-7.0517795 0.22499526 -6.93629394 0.01781299 0 0 Z " fill="#C8C8C8" transform="translate(7.93951278924942,155.8709186911583)"/>
<path d="M0 0 C0.84531389 0.00291284 1.69062777 0.00582568 2.56155723 0.00882679 C3.45262607 0.00797237 4.34369491 0.00711794 5.26176584 0.00623763 C8.27133844 0.00458009 11.28085628 0.01010865 14.29042381 0.01555592 C16.43832724 0.01583776 18.58623076 0.01568012 20.73413414 0.01511341 C26.58513636 0.01482531 32.43611827 0.02072411 38.28711575 0.02768737 C44.3943728 0.03391878 50.50163026 0.03452454 56.60889 0.03571278 C68.18279932 0.03882673 79.75669925 0.04704096 91.33060443 0.05706227 C104.5032899 0.06822144 117.67597581 0.07373336 130.84866482 0.0787577 C157.95417618 0.08922353 185.05967467 0.10756979 212.16517967 0.12908131 C212.16517967 28.50908131 212.16517967 56.88908131 212.16517967 86.12908131 C183.75877976 86.15162524 155.35238706 86.17005868 126.94598049 86.18089348 C113.75740626 86.18605722 100.56883798 86.19310139 87.38026756 86.20452076 C75.88966247 86.21446523 64.39906167 86.22093417 52.90845239 86.2231698 C46.82016982 86.22447732 40.73189955 86.22756571 34.64362091 86.23481137 C28.92034334 86.24156784 23.19708321 86.24369904 17.47380203 86.24218899 C15.36660871 86.24246549 13.25941484 86.24447281 11.15222496 86.24828678 C8.28864717 86.25321821 5.42513637 86.25208164 2.56155723 86.24933583 C1.71624335 86.25224867 0.87092946 86.25516151 0 86.25816262 C-5.72069912 86.24320252 -5.72069912 86.24320252 -6.83482033 85.12908131 C-6.9352349 82.51757843 -6.9709909 79.93249766 -6.96421486 77.32048756 C-6.96596718 76.5026479 -6.9677195 75.68480824 -6.96952492 74.84218556 C-6.97394418 72.1252962 -6.97100519 69.40847138 -6.96763283 66.69158131 C-6.96830585 64.81210527 -6.96927586 62.93262931 -6.970532 61.05315357 C-6.97200907 57.10872785 -6.96985412 53.16432473 -6.96519142 49.21990162 C-6.95949413 44.15195628 -6.96277309 39.08406389 -6.96876389 34.01612049 C-6.97236925 30.13351244 -6.97123103 26.25091703 -6.9686361 22.3683086 C-6.96796676 20.49910688 -6.96879549 18.62990403 -6.97111565 16.76070362 C-6.97364176 14.15299627 -6.96980217 11.5453759 -6.96421486 8.93767506 C-6.96623909 8.15737934 -6.96826332 7.37708363 -6.97034889 6.57314259 C-6.94419225 0.01763389 -6.51466713 0.01703639 0 0 Z " fill="#FFFFFF" transform="translate(9.834820330142975,318.8709186911583)"/>
<path d="M0 0 C61.05 0 122.1 0 185 0 C181.37 15.84 177.74 31.68 174 48 C169.48962644 67.99768162 169.48962644 67.99768162 165 88 C147.79105359 88.07777078 130.60136287 87.80054654 113.39697266 87.42724609 C111.16453498 87.37935928 108.93207176 87.33264876 106.69958496 87.28710938 C104.48541319 87.24179504 102.27129741 87.19365073 100.05725098 87.14257812 C94.24538539 87.02252041 88.45449302 87.0103954 82.64257812 87.14453125 C81.44844299 87.16616333 80.25430786 87.18779541 79.02398682 87.21008301 C76.73125583 87.25659097 74.43882515 87.32367027 72.1473999 87.41394043 C69.34834148 87.46507131 66.7579823 87.48055255 64 87 C61.94116211 84.69921875 61.94116211 84.69921875 61 82 C60.16398725 80.8277006 59.30651236 79.67033555 58.42578125 78.53125 C57.93158691 77.88889404 57.43739258 77.24653809 56.92822266 76.5847168 C56.39503418 75.89676025 55.8618457 75.20880371 55.3125 74.5 C54.13909251 72.97543772 52.96592635 71.45068969 51.79296875 69.92578125 C51.17470215 69.12350098 50.55643555 68.3212207 49.91943359 67.49462891 C46.64208026 63.2351534 43.38284269 58.96190697 40.125 54.6875 C39.45331787 53.80666748 38.78163574 52.92583496 38.08959961 52.01831055 C33.48612531 45.97332763 28.92264013 39.89955132 24.375 33.8125 C17.82606709 25.04851234 11.14082363 16.39643962 4.38769531 7.7890625 C3.92975586 7.19867188 3.47181641 6.60828125 3 6 C2.44666992 5.30648437 1.89333984 4.61296875 1.32324219 3.8984375 C0 2 0 2 0 0 Z " fill="#FEFEFE" transform="translate(268,158)"/>
<path d="M0 0 C7.59 0 15.18 0 23 0 C27.7831738 9.47938081 32.46377373 18.98661575 36.94116211 28.61450195 C37.29702393 29.374646 37.65288574 30.13479004 38.01953125 30.91796875 C38.32995361 31.58594482 38.64037598 32.2539209 38.96020508 32.94213867 C40.1826958 35.36157381 41.60533211 37.67555352 43 40 C43 26.8 43 13.6 43 0 C49.6 0 56.2 0 63 0 C63 30.69 63 61.38 63 93 C56.4 93 49.8 93 43 93 C42.2265625 91.3809375 41.453125 89.761875 40.65625 88.09375 C33.16529392 72.41317542 33.16529392 72.41317542 25.41210938 56.86132812 C23.7602222 53.60475055 22.36209624 50.40524059 21 47 C20.67 62.18 20.34 77.36 20 93 C13.4 93 6.8 93 0 93 C0 62.31 0 31.62 0 0 Z M19 41 C20 44 20 44 20 44 Z " fill="#C8C8C8" transform="translate(347,604)"/>
<path d="M0 0 C7.92 0 15.84 0 24 0 C24 10.89 24 21.78 24 33 C28.95 33 33.9 33 39 33 C39 22.11 39 11.22 39 0 C46.92 0 54.84 0 63 0 C63 30.69 63 61.38 63 93 C55.08 93 47.16 93 39 93 C38.505 75.675 38.505 75.675 38 58 C33.71 58 29.42 58 25 58 C24.67 69.55 24.34 81.1 24 93 C16.08 93 8.16 93 0 93 C0 62.31 0 31.62 0 0 Z " fill="#C8C8C8" transform="translate(205,604)"/>
<path d="M0 0 C7.59 0 15.18 0 23 0 C25.02345787 4.01953059 27.04380122 8.04057988 29.0625 12.0625 C29.62388672 13.17689453 30.18527344 14.29128906 30.76367188 15.43945312 C35.00476963 23.8974138 38.99475872 32.4173401 43 41 C43 27.47 43 13.94 43 0 C49.27 0 55.54 0 62 0 C62 30.69 62 61.38 62 93 C55.73 93 49.46 93 43 93 C42.2265625 91.30875 41.453125 89.6175 40.65625 87.875 C34.97007788 75.47662084 29.21468876 63.14254573 23 51 C22.34 49.68 21.68 48.36 21 47 C20.67 62.18 20.34 77.36 20 93 C13.4 93 6.8 93 0 93 C0 62.31 0 31.62 0 0 Z " fill="#C8C8C8" transform="translate(636,604)"/>
<path d="M0 0 C6.76007252 6.76007252 9.4946317 14.53952947 11.75 23.75 C11.75 24.74 11.75 25.73 11.75 26.75 C4.09925042 28.30123466 -3.46191437 29.23351265 -11.25 29.75 C-12.71939453 25.44677317 -14.02443263 21.12702633 -15.25 16.75 C-18.22 16.75 -21.19 16.75 -24.25 16.75 C-25.2090625 18.5753125 -25.2090625 18.5753125 -26.1875 20.4375 C-26.54714844 21.12199219 -26.90679687 21.80648437 -27.27734375 22.51171875 C-29.76772528 28.24259673 -29.46713992 34.30498778 -29.5 40.4375 C-29.520625 41.38044922 -29.54125 42.32339844 -29.5625 43.29492188 C-29.59835155 49.81542166 -28.81635686 55.70508471 -26.25 61.75 C-23.81226865 64.18773135 -22.63911094 64.36487376 -19.25 64.75 C-16.02888408 64.36666338 -16.02888408 64.36666338 -13.25 63.75 C-12.59 61.44 -11.93 59.13 -11.25 56.75 C-14.88 56.42 -18.51 56.09 -22.25 55.75 C-22.25 48.82 -22.25 41.89 -22.25 34.75 C-11.03 34.75 0.19 34.75 11.75 34.75 C11.75 52.24 11.75 69.73 11.75 87.75 C7.46 87.75 3.17 87.75 -1.25 87.75 C-1.91 85.44 -2.57 83.13 -3.25 80.75 C-4.11625 81.513125 -4.9825 82.27625 -5.875 83.0625 C-12.24788621 88.67670928 -18.2263772 89.35055583 -26.484375 89.15625 C-33.8564014 88.36092765 -39.0030371 85.40364605 -44.0625 80.0625 C-55.16165602 66.06450558 -56.67456622 49.00600416 -55.25 31.75 C-53.52876018 18.7713623 -48.91910678 6.7384696 -38.51171875 -1.65625 C-26.773859 -9.92748796 -11.29228055 -7.81773269 0 0 Z " fill="#C8C8C8" transform="translate(184.25,609.25)"/>
<path d="M0 0 C6.71322826 4.18955171 11.95248524 10.60584823 14.109375 18.31640625 C13.69140625 20.41015625 13.69140625 20.41015625 12.109375 22.31640625 C9.62895935 23.6088945 7.33058824 24.64795068 4.734375 25.62890625 C3.72503906 26.04366211 3.72503906 26.04366211 2.6953125 26.46679688 C-0.0450693 27.53759567 -2.33432222 28.34982054 -5.296875 28.171875 C-6.890625 27.31640625 -6.890625 27.31640625 -8.015625 24.31640625 C-9.53722972 21.13144428 -9.53722972 21.13144428 -12.23046875 20.6640625 C-17.2054639 20.01201654 -17.2054639 20.01201654 -21.890625 21.31640625 C-21.890625 22.96640625 -21.890625 24.61640625 -21.890625 26.31640625 C-16.28607749 28.83735657 -10.67312405 30.67352336 -4.76367188 32.33398438 C3.31999662 34.73345946 9.18099648 39.06058682 13.30859375 46.46875 C17.06860077 54.60883536 17.45821649 63.43078953 15.046875 72.06640625 C11.83323618 80.23565634 6.06372031 86.6142904 -1.890625 90.31640625 C-10.64138783 93.9002932 -22.78344435 93.96385079 -31.640625 90.62890625 C-40.77936764 86.10648053 -45.35963615 79.14868492 -49.328125 70.00390625 C-49.94548753 67.05428528 -49.55662117 65.21859393 -48.890625 62.31640625 C-45.95396274 61.6458534 -43.01640141 60.97981572 -40.078125 60.31640625 C-39.24474609 60.125625 -38.41136719 59.93484375 -37.55273438 59.73828125 C-36.75029297 59.5578125 -35.94785156 59.37734375 -35.12109375 59.19140625 C-34.01350708 58.94003906 -34.01350708 58.94003906 -32.88354492 58.68359375 C-30.890625 58.31640625 -30.890625 58.31640625 -27.890625 58.31640625 C-27.65988281 58.87070312 -27.42914063 59.425 -27.19140625 59.99609375 C-25.21871511 64.48572552 -25.21871511 64.48572552 -21.765625 67.81640625 C-17.47092961 68.5633098 -13.23699728 68.46831829 -8.890625 68.31640625 C-9.385625 64.85140625 -9.385625 64.85140625 -9.890625 61.31640625 C-10.54023193 61.11595703 -11.18983887 60.91550781 -11.85913086 60.70898438 C-14.85692472 59.76879265 -17.84198739 58.79295888 -20.828125 57.81640625 C-21.84970703 57.501875 -22.87128906 57.18734375 -23.92382812 56.86328125 C-31.94510522 54.19806458 -38.97363545 50.35677444 -43.33178711 42.82617188 C-47.56058328 33.80109986 -48.08862549 25.29626286 -44.9296875 15.8046875 C-42.02873904 8.85767935 -37.80516865 2.67258826 -30.890625 -0.68359375 C-21.22497214 -3.98719249 -9.37530789 -4.51461974 0 0 Z " fill="#C8C8C8" transform="translate(497.890625,605.68359375)"/>
<path d="M0 0 C5.55010083 -0.07453648 11.09990586 -0.12878399 16.65039062 -0.16479492 C18.53585897 -0.17981793 20.42129275 -0.20024231 22.30664062 -0.22631836 C25.0274309 -0.26298863 27.74775641 -0.27979146 30.46875 -0.29296875 C31.30241089 -0.30845261 32.13607178 -0.32393646 32.99499512 -0.33988953 C39.80940045 -0.3418191 45.38550427 0.80144677 50.75 5.3125 C57.87118412 13.81835881 58.71941042 20.07804179 58 31 C56.82210759 36.74106617 53.96838774 40.8281052 50 45 C49.01 45.495 49.01 45.495 48 46 C49.54306752 51.23798813 51.13269393 56.4563088 52.82421875 61.6484375 C53.13037109 62.59074219 53.43652344 63.53304687 53.75195312 64.50390625 C54.38368109 66.4426121 55.01919258 68.38008858 55.65820312 70.31640625 C55.96048828 71.25097656 56.26277344 72.18554688 56.57421875 73.1484375 C56.84838623 73.98552246 57.12255371 74.82260742 57.4050293 75.68505859 C58 78 58 78 58 82 C50.74 82 43.48 82 36 82 C33.86043126 77.72086252 32.47846055 74.65988805 31.31640625 70.19921875 C31.02830078 69.14025391 30.74019531 68.08128906 30.44335938 66.99023438 C29.85151167 64.77113356 29.26830164 62.54971263 28.69335938 60.32617188 C28.40396484 59.27365234 28.11457031 58.22113281 27.81640625 57.13671875 C27.56318604 56.17467529 27.30996582 55.21263184 27.04907227 54.22143555 C26.70287842 53.48836182 26.35668457 52.75528809 26 52 C24.68 51.67 23.36 51.34 22 51 C22 60.9 22 70.8 22 81 C19.66836164 82.16581918 18.27846518 82.12905609 15.68359375 82.1328125 C14.41418945 82.13474609 14.41418945 82.13474609 13.11914062 82.13671875 C12.23419922 82.13285156 11.34925781 82.12898437 10.4375 82.125 C9.54869141 82.12886719 8.65988281 82.13273438 7.74414062 82.13671875 C6.89916016 82.13542969 6.05417969 82.13414062 5.18359375 82.1328125 C4.01654907 82.13112061 4.01654907 82.13112061 2.82592773 82.12939453 C1 82 1 82 0 81 C-0.09504251 78.47458998 -0.12557158 75.97662874 -0.11352539 73.45092773 C-0.11367142 72.66074249 -0.11381744 71.87055725 -0.1139679 71.056427 C-0.11326857 68.43212178 -0.10547527 65.80788664 -0.09765625 63.18359375 C-0.09579214 61.36898335 -0.0943682 59.55437244 -0.09336853 57.73976135 C-0.08954279 52.9540977 -0.07971204 48.1684642 -0.06866455 43.3828125 C-0.05845163 38.50325936 -0.05387117 33.62370136 -0.04882812 28.74414062 C-0.03808982 19.16274714 -0.02101273 9.58137607 0 0 Z M22 18 C22 22.95 22 27.9 22 33 C28.73786235 33.27071658 28.73786235 33.27071658 35 31 C36.50934217 27.98131566 36.17510672 25.32702771 36 22 C34.27773504 18.75150023 34.27773504 18.75150023 31 18 C29.43881572 17.93259135 27.8749748 17.91485544 26.3125 17.9375 C24.889375 17.958125 23.46625 17.97875 22 18 Z " fill="#C8C8C8" transform="translate(640,487)"/>
<path d="M0 0 C8.25 0 16.5 0 25 0 C25.51691406 2.06894531 26.03382813 4.13789062 26.56640625 6.26953125 C28.1762318 12.7109878 29.78969317 19.15152889 31.40438843 25.59176636 C32.60652375 30.38740585 33.80757971 35.18331541 35.00854492 39.97924805 C35.62563249 42.44257081 36.24314247 44.9057878 36.86108398 47.36889648 C40.67115643 62.55752084 44.4061794 77.75865458 48 93 C39.75 93 31.5 93 23 93 C21.0625 85.0625 21.0625 85.0625 20.45727539 82.55883789 C19.82152149 78.98704075 19.82152149 78.98704075 18 76 C14.81415494 75.93981875 11.64409111 75.97991474 8.45898438 76.0390625 C3.20030156 76.10015078 3.20030156 76.10015078 1 75 C0.87625 76.299375 0.7525 77.59875 0.625 78.9375 C0.16107846 83.80867619 -0.9105864 88.09763879 -2 93 C-8.6 93 -15.2 93 -22 93 C-21.35489381 87.83915052 -20.69835729 83.27815039 -19.48120117 78.30297852 C-19.17385544 77.03708389 -18.8665097 75.77118927 -18.54985046 74.4669342 C-18.21429361 73.10424089 -17.87866447 71.74156537 -17.54296875 70.37890625 C-17.19484722 68.95142931 -16.84714303 67.52385054 -16.49983215 66.09617615 C-15.58627973 62.34532359 -14.66751905 58.59576689 -13.74749756 54.84649658 C-12.64457006 50.34811513 -11.54744944 45.84831516 -10.44963264 41.34868431 C-10.27266287 40.62335817 -10.09569309 39.89803204 -9.9133606 39.15072632 C-9.73810978 38.4324403 -9.56285896 37.71415428 -9.38229752 36.97410202 C-8.85974641 34.83392595 -8.33621623 32.69399142 -7.81246948 30.55410767 C-5.71076492 21.96068886 -3.65380745 13.358953 -1.68481445 4.73413086 C-1 2 -1 2 0 0 Z M10 31 C9.32667007 34.08191704 8.66251141 37.1657408 8 40.25 C7.71382813 41.55904297 7.71382813 41.55904297 7.421875 42.89453125 C7.24140625 43.73886719 7.0609375 44.58320312 6.875 45.453125 C6.70742188 46.22817383 6.53984375 47.00322266 6.3671875 47.80175781 C5.89016383 50.28610674 5.89016383 50.28610674 6 54 C8.97 54 11.94 54 15 54 C13.68 46.41 12.36 38.82 11 31 C10.67 31 10.34 31 10 31 Z " fill="#C8C8C8" transform="translate(295,604)"/>
<path d="M0 0 C8.25 0 16.5 0 25 0 C28.06515645 11.36574103 30.97280625 22.76356376 33.8125 34.1875 C34.69238258 37.72534154 35.57258557 41.26310313 36.453125 44.80078125 C36.66973282 45.67154297 36.88634064 46.54230469 37.10951233 47.43945312 C38.44305032 52.79186454 39.79827129 58.13821359 41.171875 63.48046875 C41.49438232 64.74286377 41.81688965 66.00525879 42.14916992 67.3059082 C42.73728022 69.6041131 43.33077226 71.90095095 43.9309082 74.19604492 C44.32282349 75.734823 44.32282349 75.734823 44.72265625 77.3046875 C45.05922241 78.6038208 45.05922241 78.6038208 45.40258789 79.92919922 C46.24080342 84.23777092 46.56324333 88.63243329 47 93 C39.41 93 31.82 93 24 93 C21 84 21 84 19 76 C13.39 76 7.78 76 2 76 C0.68 81.61 -0.64 87.22 -2 93 C-8.6 93 -15.2 93 -22 93 C-21.29727684 88.08093787 -20.49185264 83.49880282 -19.35546875 78.69140625 C-19.18952209 77.98738174 -19.02357544 77.28335724 -18.8526001 76.55799866 C-18.30118488 74.22529108 -17.74462393 71.89385028 -17.1875 69.5625 C-16.99624542 68.75762146 -16.80499084 67.95274292 -16.60794067 67.12347412 C-11.27735295 44.69858297 -5.63062488 22.35100842 0 0 Z M10 32 C9.32810344 34.91555115 8.66230692 37.83226951 8 40.75 C7.80921875 41.575 7.6184375 42.4 7.421875 43.25 C7.24140625 44.04921875 7.0609375 44.8484375 6.875 45.671875 C6.70742188 46.4050293 6.53984375 47.13818359 6.3671875 47.89355469 C5.88551557 50.30039489 5.88551557 50.30039489 6 54 C8.97 54 11.94 54 15 54 C13.81034913 46.63428929 12.51922091 39.30518993 11 32 C10.67 32 10.34 32 10 32 Z " fill="#C8C8C8" transform="translate(584,604)"/>
<path d="M0 0 C8.25 0 16.5 0 25 0 C26.44237908 3.6059477 27.52372575 6.74532335 28.43286133 10.46679688 C28.69686234 11.53982056 28.96086334 12.61284424 29.23286438 13.71838379 C29.51308945 14.87350464 29.79331451 16.02862549 30.08203125 17.21875 C30.37808762 18.42704468 30.67414398 19.63533936 30.97917175 20.88024902 C31.76734255 24.10029922 32.55228535 27.32110233 33.33575439 30.54229736 C34.1147518 33.74116328 34.89851298 36.9388619 35.68164062 40.13671875 C37.46384947 47.42220336 39.23547711 54.71021266 41 62 C41.25376404 63.04816895 41.50752808 64.09633789 41.76898193 65.17626953 C42.45677001 68.02312015 43.14132638 70.87072151 43.82421875 73.71875 C44.01828812 74.52300415 44.21235748 75.3272583 44.41230774 76.15588379 C45.74810253 81.75504931 46.8690677 87.3453385 48 93 C40.08 93 32.16 93 24 93 C20 81 20 81 20 75 C19.01 75.495 19.01 75.495 18 76 C15.44842345 76.0716735 12.92527029 76.09308442 10.375 76.0625 C9.66859375 76.05798828 8.9621875 76.05347656 8.234375 76.04882812 C6.48954725 76.03703875 4.744763 76.01910324 3 76 C1.03470991 79.45207476 0.2253523 82.88476226 -0.625 86.75 C-1.07875 88.8125 -1.5325 90.875 -2 93 C-8.27 93 -14.54 93 -21 93 C-21 85.12529436 -21 85.12529436 -20.04125977 81.29443359 C-19.82975784 80.43212631 -19.61825592 79.56981903 -19.40034485 78.68138123 C-19.16639511 77.7630098 -18.93244537 76.84463837 -18.69140625 75.8984375 C-18.44911789 74.91968155 -18.20682953 73.9409256 -17.9571991 72.93251038 C-17.16640537 69.74476985 -16.36446475 66.55994657 -15.5625 63.375 C-15.01574316 61.17868031 -14.46985115 58.98214516 -13.92480469 56.78540039 C-12.8210323 52.3390489 -11.71372622 47.89360047 -10.60400391 43.44873047 C-8.48012332 34.92761154 -6.4053499 26.39469332 -4.33712769 17.85992432 C-3.59067486 14.78014199 -2.8422798 11.70083329 -2.09376526 8.62155151 C-1.39540822 5.74780675 -0.69776799 2.87388784 0 0 Z M10 32 C8.68 39.26 7.36 46.52 6 54 C8.97 54 11.94 54 15 54 C14.25403037 46.5403037 12.63253871 39.31048782 11 32 C10.67 32 10.34 32 10 32 Z " fill="#C8C8C8" transform="translate(21,604)"/>
<path d="M0 0 C6.6 0 13.2 0 20 0 C26.1428968 11.60324952 32.1719092 23.2358908 38 35 C38 23.45 38 11.9 38 0 C43.94 0 49.88 0 56 0 C56.02255102 10.54381693 56.04091508 21.08761797 56.05181217 31.63145351 C56.057041 36.52685374 56.06413864 41.42223668 56.07543945 46.31762695 C56.08626834 51.03787978 56.09227684 55.75811592 56.09487724 60.4783802 C56.09673149 62.28338954 56.10035209 64.08839792 56.10573006 65.89340019 C56.11294052 68.41259644 56.11399094 70.9317229 56.11352539 73.45092773 C56.11712067 74.20474228 56.12071594 74.95855682 56.12442017 75.73521423 C56.11405216 80.88594784 56.11405216 80.88594784 55 82 C52.54507499 82.18063984 50.14495751 82.27801743 47.6875 82.3125 C46.67139648 82.35600586 46.67139648 82.35600586 45.63476562 82.40039062 C42.41049668 82.44136374 40.48440973 82.39809756 37.95019531 80.31542969 C35.84884178 77.82053274 34.54773384 75.47666041 33.16015625 72.52734375 C32.65419922 71.46193359 32.14824219 70.39652344 31.62695312 69.29882812 C31.11068359 68.18958984 30.59441406 67.08035156 30.0625 65.9375 C29.55009766 64.85533203 29.03769531 63.77316406 28.50976562 62.65820312 C25.27313312 55.80246438 22.11837848 48.91022988 19 42 C18.97494385 43.17618896 18.9498877 44.35237793 18.92407227 45.56420898 C18.83017194 49.91214622 18.72990952 54.25991716 18.62768555 58.60766602 C18.58427067 60.49239218 18.54260057 62.37715936 18.50268555 64.26196289 C18.44514107 66.96513249 18.38140196 69.66809436 18.31640625 72.37109375 C18.29133751 73.64296791 18.29133751 73.64296791 18.26576233 74.9405365 C18.11387171 80.88612829 18.11387171 80.88612829 17 82 C14.3226862 82.09981214 11.67695825 82.13879875 9 82.125 C7.87464844 82.13080078 7.87464844 82.13080078 6.7265625 82.13671875 C1.12661053 82.12661053 1.12661053 82.12661053 0 81 C-0.09504251 78.47458998 -0.12557158 75.97662874 -0.11352539 73.45092773 C-0.11367142 72.66074249 -0.11381744 71.87055725 -0.1139679 71.056427 C-0.11326857 68.43212178 -0.10547527 65.80788664 -0.09765625 63.18359375 C-0.09579214 61.36898335 -0.0943682 59.55437244 -0.09336853 57.73976135 C-0.08954279 52.9540977 -0.07971204 48.1684642 -0.06866455 43.3828125 C-0.05845163 38.50325936 -0.05387117 33.62370136 -0.04882812 28.74414062 C-0.03808981 19.16274501 -0.02049257 9.58137972 0 0 Z M17 37 C18 40 18 40 18 40 Z " fill="#C8C8C8" transform="translate(436,487)"/>
<path d="M0 0 C2.13794422 -0.00960226 4.27488366 -0.04055909 6.41259766 -0.07226562 C16.81227078 -0.15348152 26.31518924 0.74005773 34.17431641 8.24023438 C43.66089442 18.93543892 45.02984678 32.74838393 44.56494141 46.43945312 C44.02328288 55.12484477 41.70801247 63.36503623 36.17431641 70.24023438 C35.51431641 71.23023438 34.85431641 72.22023438 34.17431641 73.24023438 C29.45306567 78.63519168 22.30806667 82.12815739 15.19580078 82.72363281 C10.93302163 82.89819328 6.68573831 82.76749642 2.42431641 82.61523438 C0.9373921 82.58505455 -0.54959219 82.55769306 -2.03662109 82.53320312 C-5.63424824 82.46793784 -9.22956532 82.36487765 -12.82568359 82.24023438 C-12.97926197 71.69649451 -13.12744372 61.15269415 -13.26864719 50.60878086 C-13.33437806 45.71334734 -13.40200034 40.81795488 -13.47387695 35.92260742 C-13.54311346 31.20240891 -13.60747082 26.48216725 -13.66837883 21.76185417 C-13.69254033 19.95682274 -13.71848973 18.15181435 -13.74621773 16.34683418 C-13.78461753 13.82769506 -13.81678164 11.30855047 -13.84741211 8.78930664 C-13.86035812 8.0354921 -13.87330414 7.28167755 -13.88664246 6.50502014 C-13.90473235 4.75006715 -13.87086707 2.99469888 -13.82568359 1.24023438 C-11.1973308 -1.38811841 -3.77179618 0.01024249 0 0 Z M8.17431641 20.24023438 C8.17431641 34.10023438 8.17431641 47.96023438 8.17431641 62.24023438 C13.93042041 62.83724514 13.93042041 62.83724514 16.86181641 60.24023438 C23.228095 51.98127836 23.29971306 42.28317623 22.17431641 32.24023438 C20.8886977 26.99062466 19.74318661 23.28614785 15.17431641 20.24023438 C12.86431641 20.24023438 10.55431641 20.24023438 8.17431641 20.24023438 Z " fill="#C8C8C8" transform="translate(69.82568359375,486.759765625)"/>
<path d="M0 0 C6.6874975 4.58032581 11.50077806 10.01456351 14.35546875 17.61328125 C14.80212891 18.72509766 14.80212891 18.72509766 15.2578125 19.859375 C19.74358749 33.10998223 19.01292137 50.49108422 13.18359375 63.16015625 C8.62756368 71.76599082 3.07978959 77.19785157 -5.64453125 81.61328125 C-13.52714191 83.96685695 -20.60042774 81.60363543 -27.66796875 77.8515625 C-36.14591207 72.54028181 -41.07338893 63.9204028 -43.4609375 54.3359375 C-46.30486985 37.61043326 -44.7932053 22.11068797 -35.64453125 7.61328125 C-26.49504912 -3.34006219 -12.69113928 -7.16272567 0 0 Z M-17.33203125 18.42578125 C-23.74793482 27.26932401 -22.43955486 41.10030818 -21.33203125 51.56640625 C-20.71051231 54.9181691 -19.8038866 57.38798576 -17.83203125 60.17578125 C-15.14374919 61.94236661 -13.80135593 62.17989081 -10.64453125 61.61328125 C-7.70471006 59.76228273 -6.96020887 57.17122023 -6.07006836 53.91186523 C-5.13927797 48.88410187 -5.27526754 43.77247124 -5.26953125 38.67578125 C-5.24503906 37.53431641 -5.22054687 36.39285156 -5.1953125 35.21679688 C-5.17104298 28.21504114 -5.79028117 23.52548872 -9.64453125 17.61328125 C-13.13850492 15.73191081 -14.06768538 16.22424566 -17.33203125 18.42578125 Z " fill="#C8C8C8" transform="translate(412.64453125,488.38671875)"/>
<path d="M0 0 C10.33929846 5.85675451 15.69552558 13.35773049 18.95703125 24.79296875 C22.1424895 39.8278661 20.82951405 57.21772907 12.5 70.3125 C8.93387839 74.99544155 4.7473138 77.90997115 -0.3125 80.8125 C-1.3025 81.4725 -2.2925 82.1325 -3.3125 82.8125 C-11.11178829 84.68489231 -17.53568804 83.6019443 -24.40625 79.58984375 C-33.07855047 73.60262092 -38.6516145 65.52041228 -40.8671875 55.23828125 C-42.9427644 39.27090458 -42.58348374 22.8347373 -33.26953125 9.2265625 C-25.02679306 -0.94112653 -12.25922091 -5.85267022 0 0 Z M-15.3125 19.8125 C-20.69929846 31.38414113 -20.78670039 45.62301977 -17.3125 57.8125 C-15.88895266 61.12316045 -15.88895266 61.12316045 -13.3125 62.8125 C-9.70125038 63.30858434 -9.70125038 63.30858434 -6.3125 61.8125 C-0.09783355 51.86903367 -1.05597663 35.8997687 -3.54296875 24.9140625 C-4.77957076 21.53694634 -6.45114 19.95852 -9.3125 17.8125 C-12.04898919 17.8125 -13.06861577 18.1805842 -15.3125 19.8125 Z " fill="#C8C8C8" transform="translate(614.3125,487.1875)"/>
<path d="M0 0 C17.82 0 35.64 0 54 0 C54 7.92 54 15.84 54 24 C44.1 24 34.2 24 24 24 C24.33 27.96 24.66 31.92 25 36 C26.50433594 35.98839844 28.00867188 35.97679687 29.55859375 35.96484375 C31.51822793 35.95546751 33.47786345 35.94636713 35.4375 35.9375 C36.92733398 35.92493164 36.92733398 35.92493164 38.44726562 35.91210938 C39.86362305 35.90727539 39.86362305 35.90727539 41.30859375 35.90234375 C42.18314209 35.89710693 43.05769043 35.89187012 43.95874023 35.88647461 C46 36 46 36 47 37 C47.08700342 38.63472882 47.10701063 40.27314055 47.09765625 41.91015625 C47.09515869 42.800979 47.09266113 43.69180176 47.09008789 44.60961914 C47.08098389 45.74906982 47.07187988 46.88852051 47.0625 48.0625 C47.041875 51.671875 47.02125 55.28125 47 59 C39.41 59 31.82 59 24 59 C24 70.22 24 81.44 24 93 C16.08 93 8.16 93 0 93 C0 62.31 0 31.62 0 0 Z " fill="#C8C8C8" transform="translate(73,604)"/>
<path d="M0 0 C16.17 0 32.34 0 49 0 C49 6.6 49 13.2 49 20 C39.76 20.33 30.52 20.66 21 21 C21 23.64 21 26.28 21 29 C28.26 29.33 35.52 29.66 43 30 C43 36.27 43 42.54 43 49 C35.74 49.33 28.48 49.66 21 50 C21 53.3 21 56.6 21 60 C34.86 60.495 34.86 60.495 49 61 C49.020625 64.279375 49.04125 67.55875 49.0625 70.9375 C49.071604 71.97253662 49.08070801 73.00757324 49.09008789 74.07397461 C49.09258545 74.88358643 49.09508301 75.69319824 49.09765625 76.52734375 C49.10289307 77.35999756 49.10812988 78.19265137 49.11352539 79.05053711 C49 81 49 81 48 82 C46.53194708 82.09822744 45.0592254 82.1279837 43.58789062 82.12939453 C42.65021851 82.13254669 41.71254639 82.13569885 40.74645996 82.13894653 C39.72669067 82.1369223 38.70692139 82.13489807 37.65625 82.1328125 C36.09710876 82.13424759 36.09710876 82.13424759 34.50646973 82.13571167 C32.30395446 82.13639363 30.10143721 82.13453827 27.89892578 82.13037109 C24.51460281 82.12502308 21.13041256 82.13031559 17.74609375 82.13671875 C15.61197887 82.13605797 13.47786408 82.13477681 11.34375 82.1328125 C10.32398071 82.13483673 9.30421143 82.13686096 8.25354004 82.13894653 C6.84703186 82.13421829 6.84703186 82.13421829 5.41210938 82.12939453 C4.58239624 82.12859894 3.75268311 82.12780334 2.89782715 82.12698364 C1 82 1 82 0 81 C-0.09504251 78.47458998 -0.12557158 75.97662874 -0.11352539 73.45092773 C-0.11367142 72.66074249 -0.11381744 71.87055725 -0.1139679 71.056427 C-0.11326857 68.43212178 -0.10547527 65.80788664 -0.09765625 63.18359375 C-0.09579214 61.36898335 -0.0943682 59.55437244 -0.09336853 57.73976135 C-0.08954279 52.9540977 -0.07971204 48.1684642 -0.06866455 43.3828125 C-0.0566573 37.64596429 -0.05204846 31.90910601 -0.04621124 26.17224884 C-0.03650031 17.4481449 -0.01734415 8.72410716 0 0 Z " fill="#C8C8C8" transform="translate(2,487)"/>
<path d="M0 0 C7.26 0 14.52 0 22 0 C22.02505615 1.73604492 22.0501123 3.47208984 22.07592773 5.26074219 C22.15986664 11.00040179 22.24813107 16.73998614 22.33933926 22.47953415 C22.39447368 25.95898084 22.44787825 29.43843607 22.49731445 32.91796875 C22.55424124 36.91936197 22.61871887 40.92060269 22.68359375 44.921875 C22.70030624 46.16990906 22.71701874 47.41794312 22.73423767 48.70379639 C22.75418289 49.86469788 22.77412811 51.02559937 22.79467773 52.22167969 C22.81799416 53.75390167 22.81799416 53.75390167 22.84178162 55.31707764 C22.98195428 57.69399728 23.32393052 59.72566899 24 62 C25.45922693 61.88590407 26.91740598 61.75834456 28.375 61.625 C29.18710938 61.55539062 29.99921875 61.48578125 30.8359375 61.4140625 C33.20334191 61.17107412 33.20334191 61.17107412 35 59 C36.0773824 52.0815448 36.20483743 45.17471321 36.31640625 38.18359375 C36.33718735 37.08652603 36.35796844 35.98945831 36.37937927 34.85914612 C36.44429797 31.38532231 36.50348922 27.91142868 36.5625 24.4375 C36.60574019 22.0696545 36.64935615 19.70181582 36.69335938 17.33398438 C36.79991952 11.55605951 36.90134624 5.77806505 37 0 C42.28 0 47.56 0 53 0 C53.06796842 8.20640298 53.12292651 16.4125845 53.15543652 24.61919403 C53.17104525 28.43048114 53.1921949 32.2415645 53.22631836 36.05273438 C53.2590842 39.73562096 53.276889 43.41831244 53.28463173 47.10133362 C53.29014453 48.50146045 53.30090926 49.90157746 53.31719017 51.30162048 C53.42278981 60.76489585 53.39662472 69.22320255 46.62890625 76.6171875 C40.08973465 82.1684267 32.4678519 84.26998948 24 84 C20.88726377 83.53985638 18.0408933 82.84746207 15 82 C15 81.34 15 80.68 15 80 C14.41347656 79.89042969 13.82695312 79.78085937 13.22265625 79.66796875 C8.27180172 78.1801021 4.75493672 74.23306331 2.125 69.9375 C0.28943235 65.14462891 -0.12394654 60.85774906 -0.11352539 55.7409668 C-0.11344986 54.50005783 -0.11337433 53.25914886 -0.11329651 51.9806366 C-0.10819072 50.63683023 -0.10297474 49.29302429 -0.09765625 47.94921875 C-0.09578965 46.56631013 -0.09436689 45.18340085 -0.09336853 43.80049133 C-0.08956237 40.17225294 -0.07974843 36.544055 -0.06866455 32.91583252 C-0.05840945 29.20886787 -0.05386215 25.50189664 -0.04882812 21.79492188 C-0.03812435 14.5299274 -0.02054306 7.26497454 0 0 Z " fill="#C8C8C8" transform="translate(120,487)"/>
<path d="M0 0 C7.59 0 15.18 0 23 0 C23.86882812 3.5475 24.73765625 7.095 25.6328125 10.75 C26.49661037 14.27526082 27.36060132 17.80047428 28.22460938 21.32568359 C28.81432826 23.73220995 29.4038538 26.1387837 29.99316406 28.54541016 C30.56570518 30.88344923 31.13852039 33.2214212 31.71160889 35.55932617 C32.28452037 37.89658026 32.85682579 40.23398299 33.42852783 42.5715332 C34.84851439 48.36466602 36.28815433 54.15167486 37.76855469 59.9296875 C38.04819061 61.02659912 38.32782654 62.12351074 38.61593628 63.25366211 C39.14429583 65.32089237 39.67748606 67.38689619 40.21633911 69.45141602 C40.56920486 70.83478149 40.56920486 70.83478149 40.92919922 72.24609375 C41.24061356 73.44770142 41.24061356 73.44770142 41.55831909 74.67358398 C42 77 42 77 42 82 C35.07 82 28.14 82 21 82 C18 72 18 72 18 66 C12.72 66 7.44 66 2 66 C1.05351306 70.89066834 1.05351306 70.89066834 0.11547852 75.78295898 C-0.88888889 80.88888889 -0.88888889 80.88888889 -2 82 C-4.86267567 82.07325168 -7.700719 82.09238205 -10.5625 82.0625 C-11.36880859 82.05798828 -12.17511719 82.05347656 -13.00585938 82.04882812 C-15.00393756 82.03700518 -17.00197783 82.01906914 -19 82 C-18.36433957 75.97852278 -17.21280024 70.26357923 -15.7421875 64.39453125 C-15.51808701 63.48428192 -15.29398651 62.57403259 -15.06309509 61.63619995 C-14.33784693 58.69393236 -13.60642544 55.75323738 -12.875 52.8125 C-12.375388 50.7895946 -11.87628578 48.76656322 -11.37768555 46.7434082 C-10.62941835 43.70755912 -9.88081818 40.67179678 -9.13047791 37.63645935 C-6.99419212 28.99402898 -4.89465879 20.34310874 -2.8125 11.6875 C-2.52165527 10.48005127 -2.23081055 9.27260254 -1.93115234 8.02856445 C-1.28679243 5.35253092 -0.64327661 2.67629415 0 0 Z M9 28 C8.46839543 30.41474617 7.94945234 32.83108107 7.4375 35.25 C7.28603516 35.93191406 7.13457031 36.61382813 6.97851562 37.31640625 C6.24766505 40.81769038 5.67796454 43.60298173 7 47 C8.98 46.67 10.96 46.34 13 46 C12.41509121 39.85845775 11.45933748 33.99320151 10 28 C9.67 28 9.34 28 9 28 Z " fill="#C8C8C8" transform="translate(254,487)"/>
<path d="M0 0 C6.97629066 4.89292741 11.1591885 11.39024046 13.2890625 19.60546875 C13.8468401 23.60445054 14.15043183 27.57131612 14.2890625 31.60546875 C7.59231114 32.63573819 1.0575949 32.70699674 -5.7109375 32.60546875 C-5.80890625 31.8578125 -5.906875 31.11015625 -6.0078125 30.33984375 C-6.8351797 24.19367673 -6.8351797 24.19367673 -9.8359375 18.91796875 C-10.4546875 18.48484375 -11.0734375 18.05171875 -11.7109375 17.60546875 C-14.19341874 17.9421279 -14.19341874 17.9421279 -16.7109375 19.60546875 C-20.16080612 26.10621634 -20.13969829 33.1173526 -20.0234375 40.29296875 C-20.02666016 41.29908203 -20.02988281 42.30519531 -20.03320312 43.34179688 C-19.99027732 49.26165568 -19.76397366 54.4232627 -16.4609375 59.54296875 C-14.59424179 60.91579059 -14.59424179 60.91579059 -11.5234375 60.29296875 C-10.13125 59.95265625 -10.13125 59.95265625 -8.7109375 59.60546875 C-8.50597656 58.99058594 -8.30101562 58.37570312 -8.08984375 57.7421875 C-6.96354167 54.36328125 -5.83723958 50.984375 -4.7109375 47.60546875 C1.5590625 47.93546875 7.8290625 48.26546875 14.2890625 48.60546875 C13.90361704 56.21801656 12.92161894 61.90629764 9.2890625 68.60546875 C8.7734375 69.63671875 8.2578125 70.66796875 7.7265625 71.73046875 C2.87895896 77.44815498 -3.49248343 81.71093374 -11.0234375 82.66796875 C-15.02829781 82.7876108 -18.04020941 82.3236819 -21.7109375 80.60546875 C-22.74154297 80.17814453 -22.74154297 80.17814453 -23.79296875 79.7421875 C-31.98095811 75.906247 -36.68003473 69.50823966 -40.09765625 61.2578125 C-45.06888354 45.22778485 -44.27232856 28.03049334 -37.7109375 12.60546875 C-29.46265861 -1.41096873 -15.00931125 -8.50527637 0 0 Z " fill="#C8C8C8" transform="translate(221.7109375,488.39453125)"/>
<path d="M0 0 C17.16 0 34.32 0 52 0 C52 7.92 52 15.84 52 24 C47.05 24 42.1 24 37 24 C37 46.77 37 69.54 37 93 C29.74 93 22.48 93 15 93 C15 70.23 15 47.46 15 24 C10.05 24 5.1 24 0 24 C0 16.08 0 8.16 0 0 Z " fill="#C8C8C8" transform="translate(515,604)"/>
<path d="M0 0 C0.83272934 0.00222061 1.66545868 0.00444122 2.52342224 0.00672913 C3.46432205 0.00680466 4.40522186 0.00688019 5.37463379 0.00695801 C6.39754013 0.01211929 7.42044647 0.01728058 8.47434998 0.02259827 C9.51614914 0.02401321 10.5579483 0.02542816 11.63131714 0.02688599 C14.97355467 0.03250372 18.31572629 0.04505922 21.65794373 0.05775452 C23.91770839 0.06276723 26.17747409 0.06733053 28.4372406 0.07142639 C33.99000054 0.08247891 39.54271094 0.09975542 45.09544373 0.12025452 C45.09544373 6.72025452 45.09544373 13.32025452 45.09544373 20.12025452 C36.18544373 20.12025452 27.27544373 20.12025452 18.09544373 20.12025452 C18.09544373 24.08025452 18.09544373 28.04025452 18.09544373 32.12025452 C24.69544373 32.12025452 31.29544373 32.12025452 38.09544373 32.12025452 C38.09544373 38.72025452 38.09544373 45.32025452 38.09544373 52.12025452 C31.82544373 52.12025452 25.55544373 52.12025452 19.09544373 52.12025452 C19.00456482 55.24300842 19.00456482 55.24300842 18.91184998 58.42884827 C18.84928966 60.43772953 18.78669598 62.44660992 18.72312927 64.45545959 C18.67972939 65.85514651 18.63805809 67.25488811 18.59812927 68.65467834 C18.54054928 70.66286946 18.47630373 72.67086601 18.41184998 74.67884827 C18.37519226 75.88855286 18.33853455 77.09825745 18.30076599 78.34461975 C18.09544373 81.12025452 18.09544373 81.12025452 17.09544373 82.12025452 C15.67974249 82.20677063 14.25984872 82.22730356 12.84153748 82.21791077 C11.98753357 82.21468811 11.13352966 82.21146545 10.25364685 82.20814514 C9.35581482 82.19976624 8.45798279 82.19138733 7.53294373 82.18275452 C6.63124451 82.1782428 5.72954529 82.17373108 4.80052185 82.16908264 C2.56543059 82.15725676 0.33046936 82.14077672 -1.90455627 82.12025452 C-3.41598964 79.09738779 -3.04314435 75.97235177 -3.03395081 72.65711975 C-3.03570313 71.88790192 -3.03745544 71.11868408 -3.03926086 70.32615662 C-3.04367147 67.77703106 -3.04074445 65.22797456 -3.03736877 62.67884827 C-3.03804197 60.9129027 -3.03901213 59.14695722 -3.04026794 57.38101196 C-3.04174379 53.67795429 -3.03959373 49.97492072 -3.03492737 46.27186584 C-3.02922598 41.51446589 -3.03251239 36.75712229 -3.03849983 31.99972439 C-3.04210495 28.35302299 -3.04096716 24.70633505 -3.03837204 21.05963326 C-3.03770285 19.30486609 -3.03853092 17.55009772 -3.04085159 15.79533195 C-3.04337776 13.34818635 -3.03953825 10.90113342 -3.03395081 8.45399475 C-3.03597504 7.72202377 -3.03799927 6.9900528 -3.04008484 6.23590088 C-3.0143801 0.19032928 -3.0143801 0.19032928 0 0 Z " fill="#C8C8C8" transform="translate(526.9045562744141,486.87974548339844)"/>
<path d="M0 0 C7.92 0 15.84 0 24 0 C24 30.69 24 61.38 24 93 C16.08 93 8.16 93 0 93 C0 62.31 0 31.62 0 0 Z " fill="#C8C8C8" transform="translate(421,604)"/>
<path d="M0 0 C15.18 0 30.36 0 46 0 C46 6.93 46 13.86 46 21 C42.04 21 38.08 21 34 21 C33.67 41.13 33.34 61.26 33 82 C26.73 82 20.46 82 14 82 C13 81 13 81 12.87974548 78.60191345 C12.8830764 77.00640404 12.8830764 77.00640404 12.88647461 75.37866211 C12.88655014 74.17749252 12.88662567 72.97632294 12.88670349 71.73875427 C12.89186478 70.4314888 12.89702606 69.12422333 12.90234375 67.77734375 C12.90420802 66.43355868 12.90563188 65.08977293 12.90663147 63.74598694 C12.91045598 60.20317723 12.92028568 56.6604083 12.93133545 53.11761475 C12.94155101 49.50484773 12.9461294 45.89207416 12.95117188 42.27929688 C12.96190802 35.18617961 12.97950428 28.09309675 13 21 C8.71 21 4.42 21 0 21 C0 14.07 0 7.14 0 0 Z " fill="#C8C8C8" transform="translate(291,487)"/>
<path d="M0 0 C6.93 0 13.86 0 21 0 C21.02255102 10.54381693 21.04091508 21.08761797 21.05181217 31.63145351 C21.057041 36.52685374 21.06413864 41.42223668 21.07543945 46.31762695 C21.08626834 51.03787978 21.09227684 55.75811592 21.09487724 60.4783802 C21.09673149 62.28338954 21.10035209 64.08839792 21.10573006 65.89340019 C21.11294052 68.41259644 21.11399094 70.9317229 21.11352539 73.45092773 C21.11712067 74.20474228 21.12071594 74.95855682 21.12442017 75.73521423 C21.11405216 80.88594784 21.11405216 80.88594784 20 82 C18.59651265 82.09860131 17.18819523 82.13078937 15.78125 82.1328125 C14.50701172 82.13474609 14.50701172 82.13474609 13.20703125 82.13671875 C12.31371094 82.13285156 11.42039062 82.12898437 10.5 82.125 C9.60667969 82.12886719 8.71335937 82.13273438 7.79296875 82.13671875 C6.94347656 82.13542969 6.09398437 82.13414062 5.21875 82.1328125 C4.43435547 82.13168457 3.64996094 82.13055664 2.84179688 82.12939453 C1 82 1 82 0 81 C-0.09504251 78.47458998 -0.12557158 75.97662874 -0.11352539 73.45092773 C-0.11367142 72.66074249 -0.11381744 71.87055725 -0.1139679 71.056427 C-0.11326857 68.43212178 -0.10547527 65.80788664 -0.09765625 63.18359375 C-0.09579214 61.36898335 -0.0943682 59.55437244 -0.09336853 57.73976135 C-0.08954279 52.9540977 -0.07971204 48.1684642 -0.06866455 43.3828125 C-0.05845163 38.50325936 -0.05387117 33.62370136 -0.04882812 28.74414062 C-0.03808981 19.16274501 -0.02049257 9.58137972 0 0 Z " fill="#C8C8C8" transform="translate(341,487)"/>
</svg>
